<?xml version="1.0" encoding="utf-8"?>
<!-- Generator: Adobe Illustrator 21.0.2, SVG Export Plug-In . SVG Version: 6.00 Build 0)  -->
<svg version="1.1" id="Layer_1" xmlns="http://www.w3.org/2000/svg" xmlns:xlink="http://www.w3.org/1999/xlink" x="0px" y="0px"
	 viewBox="0 0 260 80" style="enable-background:new 0 0 260 80;" xml:space="preserve">
<style type="text/css">
	.st0{fill:#FFFFFF;}
</style>
<g>
	<polygon class="st0" points="4.3,12.9 9,12.9 9,72.2 15.5,72.2 15.5,12.9 20.2,12.9 20.2,5.6 4.3,5.6 	"/>
	<polygon class="st0" points="29.1,72.2 43.6,72.2 43.6,64.9 35.4,64.9 35.4,36.5 42.1,36.5 42.1,29.2 35.4,29.2 35.4,12.9 
		43.6,12.9 43.6,5.6 29.1,5.6 	"/>
	<path class="st0" d="M60.6,5.2c-2.8,0-4.9,0.6-6.2,1.8c-1.3,1.2-2,3.4-2,6.6V65c0,3.1,0.7,5.2,2.1,6.3c1.4,1.1,3.4,1.6,6,1.6
		c1.9,0,3.4-0.2,4.5-0.7c1.1-0.5,1.9-1.2,2.5-2.2c0.6-1,0.9-2.2,1-3.7c0.1-1.5,0.2-3.2,0.2-5.2v-1.7h-6V63c0,1.5-0.2,2.4-0.5,2.9
		c-0.3,0.4-0.9,0.7-1.6,0.7c-0.7,0-1.2-0.2-1.5-0.6c-0.3-0.4-0.5-1.2-0.5-2.2V14.2c0-1.7,0.7-2.6,2-2.6c0.8,0,1.3,0.2,1.6,0.7
		c0.3,0.4,0.4,1.6,0.4,3.5v2.6h6v-4.6c0-3.2-0.6-5.4-1.8-6.7C65.8,5.8,63.7,5.2,60.6,5.2z"/>
	<polygon class="st0" points="88.7,29.2 85.1,29.2 85.1,5.6 78.8,5.6 78.8,72.2 85.1,72.2 85.1,36.5 88.7,36.5 88.7,72.2 95,72.2 
		95,5.6 88.7,5.6 	"/>
	<path class="st0" d="M120.4,7c-0.5-0.6-1.2-1-2.1-1.2c-0.9-0.2-2-0.3-3.4-0.3h-9v66.6h9.1c1.3,0,2.4-0.1,3.3-0.3
		c0.9-0.2,1.6-0.6,2.1-1.2c0.5-0.6,0.9-1.5,1.1-2.6c0.2-1.1,0.3-2.6,0.3-4.5V38.1c0-1.7-0.3-3-1-3.7c-0.6-0.8-1.3-1.3-1.9-1.6
		c0.3-0.2,0.7-0.3,1-0.5c0.3-0.2,0.6-0.5,0.9-0.8c0.3-0.3,0.5-0.8,0.7-1.4c0.2-0.6,0.3-1.4,0.3-2.4V14.1c0-1.8-0.1-3.3-0.3-4.5
		C121.3,8.5,120.9,7.6,120.4,7z M115.7,62c0,1.1-0.1,1.9-0.2,2.3c-0.1,0.4-0.7,0.6-1.6,0.6h-1.6V36.5h0.8c1,0,1.7,0.2,2.1,0.5
		c0.4,0.3,0.6,1.1,0.6,2.5V62z M115.7,26.3c0,1.3-0.2,2.2-0.6,2.5s-1.1,0.5-2.1,0.5h-0.8V12.9h1.6c1,0,1.5,0.2,1.6,0.6
		c0.1,0.4,0.2,1.1,0.2,2.3V26.3z"/>
	<path class="st0" d="M147,7c-0.5-0.6-1.2-1-2.1-1.2c-0.9-0.2-2-0.3-3.4-0.3h-9v66.6h9.1c1.3,0,2.4-0.1,3.3-0.3
		c0.9-0.2,1.6-0.6,2.1-1.2c0.5-0.6,0.9-1.5,1.1-2.6c0.2-1.1,0.3-2.6,0.3-4.5V38.1c0-1.7-0.3-3-1-3.7c-0.6-0.8-1.3-1.3-1.9-1.6
		c0.3-0.2,0.7-0.3,1-0.5c0.3-0.2,0.6-0.5,0.9-0.8c0.3-0.3,0.5-0.8,0.7-1.4c0.2-0.6,0.3-1.4,0.3-2.4V14.1c0-1.8-0.1-3.3-0.3-4.5
		C147.8,8.5,147.5,7.6,147,7z M142.2,62c0,1.1-0.1,1.9-0.2,2.3c-0.1,0.4-0.7,0.6-1.6,0.6h-1.6V36.5h0.8c1,0,1.7,0.2,2.1,0.5
		c0.4,0.3,0.6,1.1,0.6,2.5V62z M142.2,26.3c0,1.3-0.2,2.2-0.6,2.5s-1.1,0.5-2.1,0.5h-0.8V12.9h1.6c1,0,1.5,0.2,1.6,0.6
		c0.1,0.4,0.2,1.1,0.2,2.3V26.3z"/>
	<path class="st0" d="M194.9,5.2c-2.8,0-4.9,0.6-6.2,1.8c-1.3,1.2-2,3.4-2,6.6V65c0,3.1,0.7,5.2,2.1,6.3c1.4,1.1,3.4,1.6,6,1.6
		c1.9,0,3.4-0.2,4.5-0.7c1.1-0.5,1.9-1.2,2.5-2.2c0.6-1,0.9-2.2,1-3.7c0.1-1.5,0.2-3.2,0.2-5.2v-1.7h-6V63c0,1.5-0.2,2.4-0.5,2.9
		c-0.3,0.4-0.9,0.7-1.6,0.7c-0.7,0-1.2-0.2-1.5-0.6c-0.3-0.4-0.5-1.2-0.5-2.2V14.2c0-1.7,0.7-2.6,2-2.6c0.8,0,1.3,0.2,1.6,0.7
		c0.3,0.4,0.4,1.6,0.4,3.5v2.6h6v-4.6c0-3.2-0.6-5.4-1.8-6.7C200.1,5.8,198,5.2,194.9,5.2z"/>
	<path class="st0" d="M223.3,63.5c0,0.9-0.1,1.6-0.4,2.1c-0.3,0.5-0.8,0.8-1.6,0.8c-0.7,0-1.2-0.2-1.5-0.6c-0.3-0.4-0.5-1.2-0.5-2.3
		v-58h-6.3v58.8c0,3.2,0.7,5.4,2.2,6.6s3.4,1.8,6,1.8c2.5,0,4.5-0.6,6-1.8c1.5-1.2,2.3-3.4,2.3-6.7V5.6h-6.3V63.5z"/>
	<path class="st0" d="M255.8,9.9c-0.2-1.1-0.5-2-1-2.6c-0.5-0.6-1.2-1-2.1-1.3c-0.9-0.3-2-0.4-3.4-0.4h-9.2v66.6h6.3V36.5h3.2
		c1.1-0.1,2.1-0.2,2.9-0.4c0.8-0.2,1.5-0.6,2-1.2s0.9-1.4,1.1-2.4c0.3-1,0.4-2.4,0.4-4.1V14.1C256.1,12.4,256,11,255.8,9.9z
		 M249.9,26.6c0,0.7,0,1.3-0.1,1.8c-0.1,0.5-0.5,0.8-1.2,0.8h-2.1V12.9h2.1c0.7,0,1.2,0.3,1.2,0.8c0.1,0.6,0.1,1.2,0.1,2V26.6z"/>
	<path class="st0" d="M175.1,70c-0.4,0-0.8,0-1-0.1c0.5-0.9,0.9-2.1,1-3.5c0.1-1.5,0.2-3.3,0.2-5.4V13.8c0-3.2-0.6-5.4-1.8-6.7
		c-1.2-1.3-3.3-1.9-6.4-1.9c-2.8,0-4.9,0.6-6.2,1.8c-1.3,1.2-2,3.4-2,6.6V65c0,3.1,0.7,5.2,2.1,6.3c1.4,1.1,3.4,1.6,6,1.6
		c0.2,0,0.3,0,0.5,0c0.2,0.8,0.5,1.5,1,2c0.5,0.6,1.2,1,2.1,1.2c0.9,0.2,2,0.3,3.3,0.3h5.1V70h-2.3H175.1z M165.7,65.8
		c-0.3-0.4-0.5-1.2-0.5-2.2V14.2c0-1.7,0.7-2.6,2-2.6c0.8,0,1.3,0.2,1.6,0.7c0.3,0.4,0.4,1.5,0.4,3v48.3c0,1.3-0.2,2.2-0.5,2.5
		c-0.3,0.3-0.9,0.5-1.6,0.5C166.5,66.5,166,66.3,165.7,65.8z"/>
</g>
</svg>
